<?xml version="1.0" standalone="no"?>
<!DOCTYPE svg PUBLIC "-//W3C//DTD SVG 20010904//EN"
 "http://www.w3.org/TR/2001/REC-SVG-20010904/DTD/svg10.dtd">
<svg version="1.0" xmlns="http://www.w3.org/2000/svg"
 width="199.000000pt" height="199.000000pt" viewBox="0 0 199.000000 199.000000"
 preserveAspectRatio="xMidYMid meet">
<metadata>
Created by potrace 1.11, written by Peter Selinger 2001-2013
</metadata>
<g transform="translate(0.000000,199.000000) scale(0.100000,-0.100000)"
fill="#000000" stroke="none">
<path d="M698 1564 c-154 -36 -279 -150 -333 -305 -11 -30 -11 -40 -1 -48 25
-21 55 0 84 63 68 142 213 233 357 224 124 -8 263 -104 335 -232 30 -53 35
-57 69 -56 20 0 79 -2 131 -5 l95 -6 -25 20 c-36 29 -70 39 -129 37 -52 -1
-53 -1 -78 42 -14 24 -24 45 -21 47 2 2 29 8 61 13 113 18 214 -16 293 -98 50
-52 77 -65 93 -46 15 17 -35 93 -87 134 -94 75 -231 101 -346 68 -64 -19 -54
-22 -124 42 -102 93 -250 135 -374 106z"/>
<path d="M733 1369 c-113 -15 -214 -123 -212 -229 l0 -45 20 50 c11 27 22 52
24 53 2 2 21 5 43 7 38 2 39 1 62 -52 l24 -55 18 36 c29 57 66 70 194 67 l50
-1 0 -147 -1 -148 -99 -1 c-66 -1 -101 -5 -104 -12 -6 -19 -112 -15 -127 4
-10 15 -13 15 -27 0 -9 -9 -30 -16 -47 -16 -17 0 -31 -2 -31 -4 0 -1 5 -17 11
-33 l10 -30 257 1 256 1 12 42 c11 38 11 42 -8 46 -10 3 -30 3 -44 1 -16 -3
-24 0 -25 11 -1 8 -2 23 -2 33 -1 9 9 34 22 55 20 32 21 40 10 54 -9 10 -14
44 -14 96 l-1 79 -44 47 c-70 73 -142 101 -227 90z"/>
<path d="M148 1152 c-8 -9 -28 -48 -43 -86 -16 -37 -35 -70 -42 -73 -8 -3 -13
-21 -13 -43 0 -36 2 -38 27 -35 15 1 29 8 31 14 2 6 27 11 58 11 43 0 54 -3
54 -16 0 -13 6 -15 28 -9 15 3 29 11 30 16 2 5 21 9 43 9 33 0 41 4 54 30 9
17 20 30 25 30 4 0 7 -13 5 -30 -4 -29 -3 -30 35 -30 l40 0 0 110 0 110 -66 0
c-59 0 -68 -3 -95 -29 -32 -33 -37 -65 -13 -99 14 -21 14 -25 1 -40 -8 -9 -17
-24 -20 -32 -4 -10 -6 -8 -6 6 -1 12 -7 27 -15 33 -7 6 -28 45 -46 86 -34 79
-50 93 -72 67z m259 -72 c1 -14 -4 -20 -18 -20 -10 0 -19 2 -19 4 0 2 -3 11
-6 20 -5 12 0 16 18 16 17 0 24 -6 25 -20z m-239 -79 c-15 -5 -19 4 -11 24 6
18 7 18 13 -1 4 -10 3 -21 -2 -23z"/>
<path d="M588 1152 c-8 -9 -28 -48 -43 -86 -16 -37 -35 -70 -42 -73 -8 -3 -13
-21 -13 -43 0 -36 2 -38 27 -35 15 1 29 8 31 14 2 6 27 11 58 11 41 0 54 -4
54 -15 0 -20 35 -19 56 3 10 9 19 16 21 15 2 -2 16 -3 33 -3 23 0 33 7 45 30
14 27 37 42 34 23 -7 -41 2 -53 36 -53 l35 0 0 110 0 110 -66 0 c-59 0 -68 -3
-95 -29 -33 -33 -36 -53 -14 -94 13 -25 13 -31 -1 -53 -16 -24 -25 -31 -23
-16 3 19 -2 33 -10 28 -5 -3 -25 32 -46 79 -40 89 -55 104 -77 77z m262 -73
c0 -12 -7 -19 -19 -19 -25 0 -35 27 -13 39 21 12 32 5 32 -20z m-230 -71 c0
-5 -7 -8 -15 -8 -17 0 -18 2 -9 25 5 13 8 14 15 3 5 -7 9 -16 9 -20z"/>
<path d="M1041 1151 c-17 -11 -7 -73 15 -95 13 -14 12 -20 -10 -59 -15 -24
-26 -47 -26 -50 0 -4 16 -7 35 -7 30 0 39 5 56 35 12 19 22 35 23 35 1 0 1
-16 0 -36 -3 -35 -3 -35 34 -32 32 3 38 7 42 33 l5 30 14 -32 c12 -29 18 -33
51 -33 20 0 39 3 43 6 3 3 -7 27 -23 52 -26 42 -27 48 -14 64 9 9 18 35 21 57
6 40 5 41 -25 41 -32 0 -44 -11 -49 -45 -7 -41 -23 -39 -23 3 0 39 -2 42 -27
42 -37 0 -51 -11 -49 -35 2 -34 -19 -32 -22 3 -3 27 -7 32 -30 32 -15 0 -33
-4 -41 -9z"/>
<path d="M1347 1153 c-4 -3 -7 -53 -7 -110 l0 -103 75 0 c43 0 76 4 76 10 6
43 4 45 -39 48 -28 2 -42 7 -39 15 3 7 9 11 15 10 25 -6 61 16 59 37 -1 16 -8
20 -39 20 -21 0 -38 5 -38 10 0 6 11 10 24 10 40 0 56 11 56 36 0 23 -3 24
-68 24 -38 0 -72 -3 -75 -7z"/>
<path d="M1534 1152 c-7 -4 -11 -46 -11 -110 l-1 -103 37 3 c33 3 36 6 39 38
6 64 50 63 46 -1 l-2 -40 36 3 37 3 3 108 3 107 -28 0 c-38 0 -50 -10 -48 -42
2 -27 -17 -44 -36 -32 -5 3 -9 21 -9 40 0 30 -3 34 -27 34 -16 0 -33 -4 -39
-8z"/>
<path d="M1776 1138 c-32 -28 -38 -63 -18 -105 14 -29 13 -33 -7 -62 l-22 -31
40 0 c34 0 43 5 58 30 9 17 21 30 25 30 4 0 8 -13 8 -30 0 -28 3 -30 34 -30
34 0 35 1 38 48 2 26 1 75 0 110 l-4 62 -63 0 c-52 0 -69 -4 -89 -22z m84 -59
c0 -14 -5 -19 -17 -17 -26 5 -29 38 -4 38 15 0 21 -6 21 -21z"/>
<path d="M1315 1051 c-3 -5 -1 -12 5 -16 5 -3 10 1 10 9 0 18 -6 21 -15 7z"/>
<path d="M1280 902 c-14 -2 -31 -9 -37 -14 -9 -7 -13 -7 -13 1 0 16 -50 14
-56 -2 -2 -7 -6 -27 -7 -43 l-2 -29 147 -1 c161 -2 166 0 170 56 l3 34 -90 0
c-49 1 -101 -1 -115 -2z"/>
<path d="M390 895 c0 -12 29 -62 43 -73 10 -9 18 -9 32 1 15 12 16 17 5 38 -7
13 -18 27 -24 31 -13 9 -56 11 -56 3z"/>
<path d="M1633 892 c-6 -4 -14 -19 -18 -34 -5 -20 -2 -29 12 -36 11 -6 25 -7
31 -3 14 9 33 67 24 75 -8 8 -35 7 -49 -2z"/>
<path d="M1522 792 c-6 -14 -13 -42 -13 -61 l-1 -36 -8 38 c-9 48 -24 65 -44
48 -8 -6 -17 -23 -20 -36 -8 -33 -30 -33 -24 0 6 29 -14 45 -43 38 -18 -5 -28
-43 -11 -43 14 0 10 -29 -5 -34 -9 -4 -13 5 -13 34 0 45 -12 57 -34 34 -15
-14 -16 -14 -16 0 0 16 -29 23 -31 9 -6 -72 -16 -90 -25 -45 -7 34 -27 57 -43
48 -5 -4 -13 -21 -17 -39 l-8 -32 -5 29 c-8 40 -35 56 -57 34 -15 -15 -19 -15
-40 -2 -17 12 -27 13 -43 4 -15 -8 -27 -8 -41 0 -14 8 -26 8 -40 0 -21 -11
-27 -30 -11 -30 6 0 5 -13 -1 -32 l-12 -33 -12 48 c-14 56 -18 61 -38 54 -16
-6 -52 -105 -42 -115 4 -3 16 -1 26 6 11 7 20 8 20 4 0 -17 94 -11 114 6 18
16 19 16 13 0 -10 -28 11 -21 46 13 l31 32 8 -32 c9 -33 34 -41 57 -18 10 10
11 9 6 -4 -9 -23 10 -32 33 -18 22 14 57 5 47 -11 -4 -6 -10 -8 -15 -5 -5 3
-25 -1 -44 -9 -21 -9 -38 -11 -41 -5 -15 23 -52 6 -88 -42 -21 -27 -58 -62
-83 -78 -28 -17 -42 -31 -35 -35 18 -12 13 -23 -14 -28 -21 -5 -24 -2 -19 17
5 20 1 23 -33 29 -47 9 -99 39 -182 105 -69 55 -69 55 -91 41 -12 -8 -7 -17
30 -55 49 -50 183 -145 205 -145 10 0 12 -9 8 -35 -5 -33 -4 -35 23 -35 16 0
62 9 103 19 65 16 78 17 107 5 47 -20 75 -18 81 6 4 13 17 22 42 26 74 14 206
87 300 166 34 29 34 42 2 51 -14 3 -39 -10 -78 -40 -89 -70 -195 -117 -263
-118 -49 0 -56 -2 -52 -17 5 -20 -5 -23 -27 -9 -8 6 -10 14 -5 22 5 8 9 19 9
24 0 6 8 22 18 36 14 21 28 27 73 32 72 7 175 55 150 69 -10 5 -23 7 -30 5 -7
-3 -19 -1 -27 3 -10 7 -7 11 13 19 14 5 28 16 31 23 4 9 6 8 6 -3 1 -12 11
-16 44 -16 23 -1 50 3 59 8 11 6 18 5 21 -4 3 -9 8 -9 21 2 13 11 20 11 24 4
5 -7 36 -11 81 -10 64 1 74 3 81 21 9 21 9 21 9 -1 1 -18 6 -21 35 -19 18 2
38 6 44 10 6 3 12 1 14 -6 3 -7 12 -9 22 -5 15 6 17 14 11 50 -13 78 -37 87
-65 25 l-20 -43 0 43 c0 23 -3 42 -7 42 -13 0 -30 -14 -36 -30 -4 -10 -6 -8
-6 8 -1 25 -11 28 -29 10 -12 -12 -17 -2 -13 28 1 6 -11 11 -27 12 -20 0 -30
-6 -40 -26z m43 -12 c-3 -5 -12 -10 -18 -10 -7 0 -6 4 3 10 19 12 23 12 15 0z
m-443 -62 c-7 -7 -12 -8 -12 -2 0 14 12 26 19 19 2 -3 -1 -11 -7 -17z"/>
<path d="M284 775 c-21 -16 -32 -58 -23 -82 10 -28 40 -30 62 -5 21 23 21 32
2 32 -8 0 -15 -6 -15 -12 0 -9 -3 -9 -9 1 -5 8 -7 21 -4 28 5 12 7 12 14 2 6
-10 11 -10 23 1 21 17 28 9 29 -35 2 -51 30 -44 37 9 3 22 10 41 16 43 16 5
35 -52 22 -65 -6 -6 -6 -12 3 -17 14 -9 54 35 68 77 12 33 -6 50 -24 25 -15
-20 -25 -22 -25 -4 0 16 -155 18 -176 2z"/>
<path d="M529 763 c-6 -16 -18 -43 -26 -62 -16 -38 -4 -66 19 -43 15 15 45 16
50 1 2 -7 17 -4 41 10 20 11 37 17 37 11 0 -18 61 -7 77 14 l15 21 -5 -23 c-4
-18 -2 -22 11 -20 12 2 19 17 22 50 3 25 4 51 2 57 -5 14 -59 15 -67 1 -4 -7
-12 -7 -25 0 -15 8 -21 6 -29 -7 -10 -17 -10 -17 -11 0 0 18 -20 19 -32 2 -4
-5 -8 -23 -8 -38 0 -16 -4 -26 -10 -22 -5 3 -10 16 -10 29 0 22 -17 46 -32 46
-5 0 -13 -12 -19 -27z m163 -65 c-8 -8 -9 -4 -5 13 4 13 8 18 11 10 2 -7 -1
-18 -6 -23z"/>
<path d="M706 639 c8 -13 100 -30 131 -24 32 5 83 22 83 27 0 2 -49 3 -109 3
-60 1 -108 -2 -105 -6z"/>
</g>
</svg>
